<svg xmlns="http://www.w3.org/2000/svg" viewBox="0 0 24 24">
	<g fill="none" stroke="currentColor" stroke-linecap="round" stroke-linejoin="round" stroke-width="1.5">
		<path d="M18 4H6c-1.4 0-2.1 0-2.635.272a2.5 2.5 0 0 0-1.093 1.093C2 5.9 2 6.6 2 8s0 2.1.272 2.635a2.5 2.5 0 0 0 1.093 1.092C3.9 12 4.6 12 6 12h12c1.4 0 2.1 0 2.635-.273a2.5 2.5 0 0 0 1.092-1.092C22 10.1 22 9.4 22 8s0-2.1-.273-2.635a2.5 2.5 0 0 0-1.092-1.093C20.1 4 19.4 4 18 4" />
		<path d="M18 7s-1.473 2-2 2s-2-2-2-2M2 16h12M2 20h12" />
	</g>
</svg>
