<svg xmlns="http://www.w3.org/2000/svg" viewBox="0 0 24 24">
	<g fill="none">
		<path d="m12.593 23.258l-.011.002l-.071.035l-.02.004l-.014-.004l-.071-.035q-.016-.005-.024.005l-.004.01l-.017.428l.005.02l.01.013l.104.074l.015.004l.012-.004l.104-.074l.012-.016l.004-.017l-.017-.427q-.004-.016-.017-.018m.265-.113l-.013.002l-.185.093l-.01.01l-.003.011l.018.43l.005.012l.008.007l.201.093q.019.005.029-.008l.004-.014l-.034-.614q-.005-.018-.02-.022m-.715.002a.02.02 0 0 0-.027.006l-.006.014l-.034.614q.001.018.017.024l.015-.002l.201-.093l.01-.008l.004-.011l.017-.43l-.003-.012l-.01-.01z" />
		<path fill="currentColor" d="M12 2.5a1.5 1.5 0 0 1 1.493 1.356L13.5 4v16a1.5 1.5 0 0 1-2.993.144L10.5 20V4A1.5 1.5 0 0 1 12 2.5m-4 3A1.5 1.5 0 0 1 9.5 7v10a1.5 1.5 0 0 1-3 0V7A1.5 1.5 0 0 1 8 5.5m8 0A1.5 1.5 0 0 1 17.5 7v10a1.5 1.5 0 0 1-3 0V7A1.5 1.5 0 0 1 16 5.5m-12 3A1.5 1.5 0 0 1 5.5 10v4a1.5 1.5 0 0 1-3 0v-4A1.5 1.5 0 0 1 4 8.5m16 0a1.5 1.5 0 0 1 1.493 1.356L21.5 10v4a1.5 1.5 0 0 1-2.993.144L18.5 14v-4A1.5 1.5 0 0 1 20 8.5" />
	</g>
</svg>
