<svg xmlns="http://www.w3.org/2000/svg" viewBox="0 0 16 16">
	<path fill="currentColor" fill-rule="evenodd" d="M2.377.266a.4.4 0 0 0-.754 0l-.291.823a.4.4 0 0 1-.243.243l-.823.291a.4.4 0 0 0 0 .754l.823.291a.4.4 0 0 1 .243.243l.291.823a.4.4 0 0 0 .754 0l.291-.823a.4.4 0 0 1 .243-.243l.823-.291a.4.4 0 0 0 0-.754l-.823-.291a.4.4 0 0 1-.243-.243zm12.018 6.602l-.014-.038l-.55-1.44l-.172.53l-.337 1.035H6.678L6.342 5.92l-.172-.528l-.551 1.445l-.004.01l-.004.01l-.012.03a1.56 1.56 0 0 0 .512 1.78l.001.001l.003.003l.01.008l.01.008l.004.002l2.474 1.862l.005.004l1.232.935l.148.112l.146-.112l1.233-.935l.006-.004l2.49-1.873l.006-.004l.009-.006a1.56 1.56 0 0 0 .51-1.79zm.391 3l-2.502 1.88l-1.233.936l-.748.569a.505.505 0 0 1-.61 0l-.75-.569l-1.232-.935l-2.485-1.87l-.013-.011l-.007-.005A3.06 3.06 0 0 1 4.2 6.343l.017-.042L5.431 3.12l.068-.178l.043-.114l.173-.453l.017-.045l.118-.308a.43.43 0 0 1 .356-.27a.43.43 0 0 1 .46.314l.099.305l.004.013l.193.594l.06.181l.746 2.296h4.464l.747-2.296l.06-.18l.193-.595l.004-.013l.099-.305a.433.433 0 0 1 .648-.248a.43.43 0 0 1 .168.204l.116.305l.019.048l.171.45l.045.117l.068.177L15.784 6.3l.016.044a3.06 3.06 0 0 1-1.007 3.518zM3.03 11.333a.5.5 0 0 1 .942 0l.364 1.028a.5.5 0 0 0 .304.304l1.028.364a.5.5 0 0 1 0 .942l-1.028.364a.5.5 0 0 0-.304.304l-.364 1.028a.5.5 0 0 1-.942 0l-.364-1.028a.5.5 0 0 0-.304-.304l-1.028-.364a.5.5 0 0 1 0-.942l1.028-.364a.5.5 0 0 0 .304-.304z" clip-rule="evenodd" />
</svg>
